<svg xmlns="http://www.w3.org/2000/svg" width="1000" height="600" viewBox="0 0 1000 600" style="max-width:100%;height:auto" role="img"><title>Soldier Target: the same angles at two distances</title><desc>Illustrative six-shot pattern projected at 20 and 100 metres. Both panels use the same metre scale; trajectory and zeroing are omitted.</desc><rect width="1000" height="600" rx="16" fill="#f3f6fa"/><g font-family="Arial, Helvetica, sans-serif"><text x="30" y="43" font-size="28" fill="#142b42" font-weight="700">Soldier Target: the same angles at two distances</text><text x="30" y="76" font-size="18" fill="#32465b" font-weight="400">Same six directions • same metre scale in both panels • aim at chest</text><text x="225" y="119" font-size="23" fill="#142b42" font-weight="700">20 m</text><line x1="175" y1="140" x2="175" y2="470" stroke="#d4dfe9" stroke-width="1.5" stroke-dasharray=""/><text x="167" y="493" font-size="16" fill="#32465b" font-weight="400">-1</text><line x1="250" y1="140" x2="250" y2="470" stroke="#d4dfe9" stroke-width="1.5" stroke-dasharray=""/><text x="242" y="493" font-size="16" fill="#32465b" font-weight="400">0</text><line x1="325" y1="140" x2="325" y2="470" stroke="#d4dfe9" stroke-width="1.5" stroke-dasharray=""/><text x="317" y="493" font-size="16" fill="#32465b" font-weight="400">1</text><line x1="400" y1="140" x2="400" y2="470" stroke="#d4dfe9" stroke-width="1.5" stroke-dasharray=""/><text x="392" y="493" font-size="16" fill="#32465b" font-weight="400">2</text><line x1="120" y1="435" x2="430" y2="435" stroke="#d4dfe9" stroke-width="1.5" stroke-dasharray=""/><text x="87" y="441" font-size="16" fill="#32465b" font-weight="400">-1</text><line x1="120" y1="360" x2="430" y2="360" stroke="#d4dfe9" stroke-width="1.5" stroke-dasharray=""/><text x="87" y="366" font-size="16" fill="#32465b" font-weight="400">0</text><line x1="120" y1="285" x2="430" y2="285" stroke="#d4dfe9" stroke-width="1.5" stroke-dasharray=""/><text x="87" y="291" font-size="16" fill="#32465b" font-weight="400">1</text><line x1="120" y1="210" x2="430" y2="210" stroke="#d4dfe9" stroke-width="1.5" stroke-dasharray=""/><text x="87" y="216" font-size="16" fill="#32465b" font-weight="400">2</text><text x="133" y="521" font-size="16" fill="#32465b" font-weight="400">Horizontal offset (m)</text><g transform="translate(250,360) scale(75)" fill="none" stroke="#62758a" stroke-width=".018" stroke-linejoin="round">
 <path d="M-.08,-.23 L-.08,-.15 L-.25,-.12 Q-.31,-.1 -.33,.02 L-.39,.36 L-.37,.53 Q-.34,.59 -.29,.54 L-.27,.37 L-.22,.12 L-.19,.4 L-.23,.56 L-.22,.88 L-.24,1.22 L-.29,1.27 L-.29,1.32 L-.08,1.32 L-.07,1.24 L-.08,.91 L0,.57 L.08,.91 L.07,1.24 L.08,1.32 L.29,1.32 L.29,1.27 L.24,1.22 L.22,.88 L.23,.56 L.19,.4 L.22,.12 L.27,.37 L.29,.54 Q.34,.59 .37,.53 L.39,.36 L.33,.02 Q.31,-.1 .25,-.12 L.08,-.15 L.08,-.23 Q.12,-.27 .115,-.34 L.145,-.34 Q.15,-.48 0,-.48 Q-.15,-.48 -.145,-.34 L-.115,-.34 Q-.12,-.27 -.08,-.23 Z"/>
 </g><line x1="240" y1="360" x2="260" y2="360" stroke="#142b42" stroke-width="2" stroke-dasharray=""/><line x1="250" y1="350" x2="250" y2="370" stroke="#142b42" stroke-width="2" stroke-dasharray=""/><circle cx="250" cy="360" r="5" fill="#bc6032"/><text x="258" y="355" font-size="14" fill="#bc6032" font-weight="700">1</text><circle cx="253.14159724712033" cy="350.8369074512105" r="5" fill="#bc6032"/><circle cx="247.90560353656204" cy="343.7678043822036" r="5" fill="#bc6032"/><circle cx="257.0686357941337" cy="335.12677875834737" r="5" fill="#bc6032"/><circle cx="254.71240448358424" cy="327.5318066065689" r="5" fill="#bc6032"/><circle cx="261.78121469347536" cy="319.4111928584616" r="5" fill="#bc6032"/><text x="269.78121469347536" y="314.4111928584616" font-size="14" fill="#bc6032" font-weight="700">6</text><text x="715" y="119" font-size="23" fill="#142b42" font-weight="700">100 m</text><line x1="665" y1="140" x2="665" y2="470" stroke="#d4dfe9" stroke-width="1.5" stroke-dasharray=""/><text x="657" y="493" font-size="16" fill="#32465b" font-weight="400">-1</text><line x1="740" y1="140" x2="740" y2="470" stroke="#d4dfe9" stroke-width="1.5" stroke-dasharray=""/><text x="732" y="493" font-size="16" fill="#32465b" font-weight="400">0</text><line x1="815" y1="140" x2="815" y2="470" stroke="#d4dfe9" stroke-width="1.5" stroke-dasharray=""/><text x="807" y="493" font-size="16" fill="#32465b" font-weight="400">1</text><line x1="890" y1="140" x2="890" y2="470" stroke="#d4dfe9" stroke-width="1.5" stroke-dasharray=""/><text x="882" y="493" font-size="16" fill="#32465b" font-weight="400">2</text><line x1="610" y1="435" x2="920" y2="435" stroke="#d4dfe9" stroke-width="1.5" stroke-dasharray=""/><text x="577" y="441" font-size="16" fill="#32465b" font-weight="400">-1</text><line x1="610" y1="360" x2="920" y2="360" stroke="#d4dfe9" stroke-width="1.5" stroke-dasharray=""/><text x="577" y="366" font-size="16" fill="#32465b" font-weight="400">0</text><line x1="610" y1="285" x2="920" y2="285" stroke="#d4dfe9" stroke-width="1.5" stroke-dasharray=""/><text x="577" y="291" font-size="16" fill="#32465b" font-weight="400">1</text><line x1="610" y1="210" x2="920" y2="210" stroke="#d4dfe9" stroke-width="1.5" stroke-dasharray=""/><text x="577" y="216" font-size="16" fill="#32465b" font-weight="400">2</text><text x="623" y="521" font-size="16" fill="#32465b" font-weight="400">Horizontal offset (m)</text><g transform="translate(740,360) scale(75)" fill="none" stroke="#62758a" stroke-width=".018" stroke-linejoin="round">
 <path d="M-.08,-.23 L-.08,-.15 L-.25,-.12 Q-.31,-.1 -.33,.02 L-.39,.36 L-.37,.53 Q-.34,.59 -.29,.54 L-.27,.37 L-.22,.12 L-.19,.4 L-.23,.56 L-.22,.88 L-.24,1.22 L-.29,1.27 L-.29,1.32 L-.08,1.32 L-.07,1.24 L-.08,.91 L0,.57 L.08,.91 L.07,1.24 L.08,1.32 L.29,1.32 L.29,1.27 L.24,1.22 L.22,.88 L.23,.56 L.19,.4 L.22,.12 L.27,.37 L.29,.54 Q.34,.59 .37,.53 L.39,.36 L.33,.02 Q.31,-.1 .25,-.12 L.08,-.15 L.08,-.23 Q.12,-.27 .115,-.34 L.145,-.34 Q.15,-.48 0,-.48 Q-.15,-.48 -.145,-.34 L-.115,-.34 Q-.12,-.27 -.08,-.23 Z"/>
 </g><line x1="730" y1="360" x2="750" y2="360" stroke="#142b42" stroke-width="2" stroke-dasharray=""/><line x1="740" y1="350" x2="740" y2="370" stroke="#142b42" stroke-width="2" stroke-dasharray=""/><circle cx="740" cy="360" r="5" fill="#bc6032"/><text x="748" y="355" font-size="14" fill="#bc6032" font-weight="700">1</text><circle cx="755.7079862356017" cy="314.1845372560526" r="5" fill="#bc6032"/><text x="763.7079862356017" y="309.1845372560526" font-size="14" fill="#bc6032" font-weight="700">2</text><circle cx="729.5280176828103" cy="278.839021911018" r="5" fill="#bc6032"/><text x="737.5280176828103" y="273.839021911018" font-size="14" fill="#bc6032" font-weight="700">3</text><circle cx="775.3431789706685" cy="235.63389379173694" r="5" fill="#bc6032"/><text x="783.3431789706685" y="230.63389379173694" font-size="14" fill="#bc6032" font-weight="700">4</text><circle cx="763.5620224179212" cy="197.65903303284443" r="5" fill="#bc6032"/><text x="771.5620224179212" y="192.65903303284443" font-size="14" fill="#bc6032" font-weight="700">5</text><circle cx="798.9060734673769" cy="157.05596429230795" r="5" fill="#bc6032"/><text x="806.9060734673769" y="152.05596429230795" font-size="14" fill="#bc6032" font-weight="700">6</text><text x="30" y="558" font-size="20" fill="#142b42" font-weight="700">Farther targets have wider impact spacing for the same angular pattern.</text><text x="30" y="585" font-size="17" fill="#32465b" font-weight="400">Schematic only: simplified target; trajectory and zeroing omitted to isolate the effect of distance.</text></g></svg>